<svg width="687" height="95" viewBox="0 0 687 95" fill="none" xmlns="http://www.w3.org/2000/svg">
<path d="M79.2631 67.7947V26.5879H120.47V67.7947H79.2631ZM112.229 59.5534V34.8293H87.5044V59.5534H112.229Z" fill="#010203"/>
<path d="M202.884 67.7947H161.677V26.5879H202.884V34.8293H169.918V59.5534H194.642V51.312H186.401V43.0706H202.884V67.7947Z" fill="#010203"/>
<path d="M244.09 67.7947V26.5879H252.332L277.056 55.819V26.5879H285.297V67.7947H277.056L252.332 39.465V67.7947H244.09Z" fill="#010203"/>
<path d="M334.746 51.312V59.5534H367.711V67.7947H326.504V26.5879H367.711V34.8293H334.746V43.0706H359.47V51.312H334.746Z" fill="#010203"/>
<path d="M408.918 26.5879H450.125V34.8293H433.642V67.7947H425.401V34.8293H408.918V26.5879Z" fill="#010203"/>
<path d="M0.00135859 26.8184L40.867 26.7916V62.2417L33.3471 67.5661L17.5626 49.8145L23.059 44.8764L33.1855 56.0885L33.1403 34.5037L7.71059 34.5223L7.71176 59.7925L20.6102 59.7938V67.5017L0 67.503L0.00135859 26.8184Z" fill="#010203"/>
<rect width="154.3" height="68.1362" transform="translate(493.82 13.124)" fill="#3A1AFF"/>
<path d="M520.713 62.1924V28.99H538.263C539.085 28.99 539.844 29.3063 540.539 29.9387L545.093 33.7332C545.852 34.3657 546.231 34.9981 546.231 35.6305V55.5519C546.231 56.1843 545.852 56.8168 545.093 57.4492L540.539 61.2437C539.844 61.8762 539.085 62.1924 538.263 62.1924H520.713ZM542.247 54.129V37.0535C542.247 36.421 541.868 35.7886 541.109 35.1562L538.832 33.2589C538.136 32.6265 537.377 32.3103 536.555 32.3103H524.697V58.8721H536.555C537.377 58.8721 538.136 58.5559 538.832 57.9235L541.109 56.0262C541.868 55.3938 542.247 54.7614 542.247 54.129ZM557.23 38.4764H568.614C569.373 38.4764 570.132 38.7926 570.891 39.4251L572.029 40.3737C572.788 41.0061 573.167 41.7967 573.167 42.7453V57.9235C573.167 58.8721 572.788 59.6627 572.029 60.2951L570.891 61.2437C570.132 61.8762 569.373 62.1924 568.614 62.1924H557.23C556.471 62.1924 555.712 61.8762 554.954 61.2437L553.815 60.2951C553.056 59.6627 552.677 58.8721 552.677 57.9235V42.7453C552.677 41.7967 553.056 41.0061 553.815 40.3737L554.954 39.4251C555.712 38.7926 556.471 38.4764 557.23 38.4764ZM569.183 56.9274V43.7414C569.183 43.2671 569.152 42.9667 569.088 42.8402C569.057 42.6821 568.899 42.4923 568.614 42.271C568.329 42.0496 568.108 41.9231 567.95 41.8915C567.792 41.8283 567.428 41.7967 566.859 41.7967H558.985C558.416 41.7967 558.052 41.8283 557.894 41.8915C557.736 41.9231 557.515 42.0496 557.23 42.271C556.946 42.4923 556.772 42.6821 556.709 42.8402C556.677 42.9667 556.661 43.2671 556.661 43.7414V56.9274C556.661 57.4018 556.677 57.718 556.709 57.8761C556.772 58.0026 556.946 58.1765 557.23 58.3978C557.515 58.6192 557.736 58.7615 557.894 58.8247C558.052 58.8563 558.416 58.8721 558.985 58.8721H566.859C567.428 58.8721 567.792 58.8563 567.95 58.8247C568.108 58.7615 568.329 58.6192 568.614 58.3978C568.899 58.1765 569.057 58.0026 569.088 57.8761C569.152 57.718 569.183 57.4018 569.183 56.9274ZM597.866 44.6426H593.881V43.7414C593.881 43.2671 593.85 42.9667 593.787 42.8402C593.755 42.6821 593.597 42.4923 593.312 42.271C593.028 42.0496 592.806 41.9231 592.648 41.8915C592.49 41.8283 592.126 41.7967 591.557 41.7967H585.201C584.632 41.7967 584.269 41.8283 584.11 41.8915C583.952 41.9231 583.731 42.0496 583.446 42.271C583.162 42.4923 582.988 42.6821 582.925 42.8402C582.893 42.9667 582.877 43.2671 582.877 43.7414V56.9274C582.877 57.4018 582.893 57.718 582.925 57.8761C582.988 58.0026 583.162 58.1765 583.446 58.3978C583.731 58.6192 583.952 58.7615 584.11 58.8247C584.269 58.8563 584.632 58.8721 585.201 58.8721H591.557C592.126 58.8721 592.49 58.8563 592.648 58.8247C592.806 58.7615 593.028 58.6192 593.312 58.3978C593.597 58.1765 593.755 58.0026 593.787 57.8761C593.85 57.718 593.881 57.4018 593.881 56.9274V56.0262H597.866V57.9235C597.866 58.8721 597.486 59.6627 596.727 60.2951L595.589 61.2437C594.83 61.8762 594.071 62.1924 593.312 62.1924H583.446C582.688 62.1924 581.929 61.8762 581.17 61.2437L580.031 60.2951C579.272 59.6627 578.893 58.8721 578.893 57.9235V42.7453C578.893 41.7967 579.272 41.0061 580.031 40.3737L581.17 39.4251C581.929 38.7926 582.688 38.4764 583.446 38.4764H593.312C594.071 38.4764 594.83 38.7926 595.589 39.4251L596.727 40.3737C597.486 41.0061 597.866 41.7967 597.866 42.7453V44.6426ZM618.387 48.4371C619.146 48.4371 619.905 48.7533 620.664 49.3858L621.802 50.3344C622.561 50.9668 622.941 51.7574 622.941 52.706V57.9235C622.941 58.8721 622.561 59.6627 621.802 60.2951L620.664 61.2437C619.905 61.8762 619.146 62.1924 618.387 62.1924H607.857C607.098 62.1924 606.339 61.8762 605.58 61.2437L604.442 60.2951C603.683 59.6627 603.304 58.8721 603.304 57.9235V56.0262H607.288V56.9274C607.288 57.4018 607.304 57.718 607.335 57.8761C607.399 58.0026 607.573 58.1765 607.857 58.3978C608.142 58.6192 608.363 58.7615 608.521 58.8247C608.679 58.8563 609.043 58.8721 609.612 58.8721H616.632C617.201 58.8721 617.565 58.8563 617.723 58.8247C617.881 58.7615 618.102 58.6192 618.387 58.3978C618.672 58.1765 618.83 58.0026 618.861 57.8761C618.925 57.718 618.956 57.4018 618.956 56.9274V53.0855C618.925 52.8325 618.735 52.5479 618.387 52.2317C618.102 52.0103 617.881 51.8838 617.723 51.8522C617.565 51.789 617.201 51.7574 616.632 51.7574H608.331C607.573 51.7574 606.814 51.4412 606.055 50.8087L604.916 49.8601C604.157 49.2277 603.778 48.4371 603.778 47.4885V42.7453C603.778 41.7967 604.157 41.0061 604.916 40.3737L606.055 39.4251C606.814 38.7926 607.573 38.4764 608.331 38.4764H618.387C619.146 38.4764 619.905 38.7926 620.664 39.4251L621.802 40.3737C622.561 41.0061 622.941 41.7967 622.941 42.7453V44.6426H618.956V43.7414C618.956 43.2671 618.925 42.9667 618.861 42.8402C618.83 42.6821 618.672 42.4923 618.387 42.271C618.102 42.0496 617.881 41.9231 617.723 41.8915C617.565 41.8283 617.201 41.7967 616.632 41.7967H610.086C609.517 41.7967 609.154 41.8283 608.996 41.8915C608.837 41.9231 608.616 42.0496 608.331 42.271C608.047 42.4923 607.873 42.6821 607.81 42.8402C607.778 42.9667 607.762 43.2671 607.762 43.7414V46.4924C607.762 46.9667 607.778 47.283 607.81 47.4411C607.873 47.5675 608.047 47.7415 608.331 47.9628C608.616 48.1842 608.837 48.3265 608.996 48.3897C609.154 48.4213 609.517 48.4371 610.086 48.4371H618.387Z" fill="white"/>
</svg>
